<svg id="Layer_1" data-name="Layer 1" xmlns="http://www.w3.org/2000/svg" viewBox="0 0 297 62"><defs><style>.cls-1{fill:#fff;}</style></defs><title>logo</title><path class="cls-1" d="M32.028,26.069L31.2,21.859a9.765,9.765,0,0,0,1.768-.112,26.344,26.344,0,0,0,2.67-1.066,6.854,6.854,0,0,1,3.466-.082,5.629,5.629,0,0,1,1.415.623,4.158,4.158,0,0,0-2.044,1.152c-1.061,1.438-3.184,1.508-4.768,1.082C32.344,23.089,32.021,26.037,32.028,26.069Z" transform="translate(0 0)"/><path class="cls-1" d="M24.707,26.069l0.826-4.209a9.759,9.759,0,0,1-1.767-.113A26.337,26.337,0,0,1,21.1,20.68,6.854,6.854,0,0,0,17.63,20.6a5.627,5.627,0,0,0-1.415.623,4.16,4.16,0,0,1,2.043,1.153c1.061,1.438,3.184,1.508,4.767,1.082C24.391,23.089,24.714,26.037,24.707,26.069Z" transform="translate(0 0)"/><path class="cls-1" d="M17.4,2.861l0.168,0.146a8.4,8.4,0,0,0,1.57,1.016c0.586,0.3,1.225.58,1.886,0.891,0.685,0.323,1.308.661,1.945,1.019a21.028,21.028,0,0,1,1.817,1.16A15.929,15.929,0,0,1,26.4,8.415,9.6,9.6,0,0,1,27.682,9.9a6.913,6.913,0,0,1,.685,1.2,6.884,6.884,0,0,1,.685-1.2,9.628,9.628,0,0,1,1.284-1.48A15.93,15.93,0,0,1,31.949,7.1a20.146,20.146,0,0,1,1.82-1.159c0.633-.354,1.26-0.693,1.945-1.019,0.661-.313,1.3-0.594,1.886-0.891a8.4,8.4,0,0,0,1.564-1.024l0.17-.146c0.037-.029.114-0.1,0.168-0.154l0.089-.084c-1.226-.544-2.435-1-3.569-1.376a24.123,24.123,0,0,0-15.31,0c-1.134.38-2.338,0.836-3.569,1.376l0.089,0.084C17.284,2.757,17.362,2.833,17.4,2.861Z" transform="translate(0 0)"/><path class="cls-1" d="M1.837,23.749A14.507,14.507,0,0,0,3.52,22.494,18.186,18.186,0,0,0,5.2,20.826c1.111-1.235,2.226-2.673,3.553-4.059l0.512-.512,0.553-.508,0.52-.44,0.6-.46A15.772,15.772,0,0,1,13.4,13.376a14.064,14.064,0,0,1,2.562-.933,12.329,12.329,0,0,1,2.445-.386,10.98,10.98,0,0,1,1.11-.02q0.5,0.006,1,.062c0.316,0.021.606,0.078,0.877,0.121,0.161,0.022.318,0.054,0.471,0.089a6.334,6.334,0,0,1,1.538.15,13.967,13.967,0,0,1,2.646.99c0-.038,0-0.074.008-0.117l0.007-.093a0.491,0.491,0,0,0-.007-0.056l0-.116a2.964,2.964,0,0,0-.132-0.732,4.426,4.426,0,0,0-.462-1.026A8.006,8.006,0,0,0,24.6,10.13a13.405,13.405,0,0,0-1.253-1.22c-0.469-.4-0.989-0.8-1.538-1.188s-1.129-.792-1.7-1.131c-0.588-.354-1.225-0.713-1.84-1.117a9.934,9.934,0,0,1-1.73-1.4l-0.187-.2c-0.08-.086-0.112-0.133-0.17-0.2-0.1-.121-0.209-0.256-0.317-0.4-0.013-.017-0.023-0.033-0.036-0.049C10.374,5.879,4.68,10.266,2.251,17.457c-0.218.645-.461,1.287-0.722,1.913A20.528,20.528,0,0,0,.187,24.625l0.1-.042A12.384,12.384,0,0,0,1.837,23.749Z" transform="translate(0 0)"/><path class="cls-1" d="M36.627,6.592c-0.569.339-1.159,0.743-1.7,1.131s-1.065.792-1.539,1.188a13.488,13.488,0,0,0-1.252,1.22,8,8,0,0,0-.862,1.181,4.435,4.435,0,0,0-.462,1.026,2.96,2.96,0,0,0-.132.732l-0.013.117c0,0.02-.006.033-0.007,0.056l0.007,0.093,0.007,0.115a13.967,13.967,0,0,1,2.646-.99,6.335,6.335,0,0,1,1.538-.15c0.152-.035.309-0.067,0.47-0.089,0.271-.043.561-0.1,0.877-0.121q0.5-.056,1-0.062a10.98,10.98,0,0,1,1.11.02,12.321,12.321,0,0,1,2.445.386,14.07,14.07,0,0,1,2.562.933A15.759,15.759,0,0,1,45.8,14.85l0.6,0.46,0.52,0.44,0.553,0.508,0.512,0.512c1.327,1.381,2.442,2.824,3.552,4.059A18.186,18.186,0,0,0,53.21,22.5a14.538,14.538,0,0,0,1.683,1.255,12.358,12.358,0,0,0,1.552.835l0.1,0.042A20.514,20.514,0,0,0,55.2,19.365c-0.262-.629-0.5-1.267-0.721-1.913-2.429-7.2-8.124-11.581-13.575-14.222l-0.036.049c-0.107.141-.215,0.276-0.316,0.4-0.058.068-.09,0.115-0.171,0.2l-0.187.2a9.932,9.932,0,0,1-1.732,1.4C37.849,5.879,37.215,6.237,36.627,6.592Z" transform="translate(0 0)"/><path class="cls-1" d="M48.256,48.69c7.676-9.418,8.862-17.656,8.392-23.135-0.154-.018-0.311-0.041-0.475-0.071a7.908,7.908,0,0,1-1.9-.62,12.9,12.9,0,0,1-2-1.188,19.8,19.8,0,0,1-1.991-1.624c-1.309-1.188-2.535-2.547-3.849-3.688l-0.494-.417-0.485-.384-0.548-.4-0.5-.327a13.294,13.294,0,0,0-2.143-1.089,10.668,10.668,0,0,0-1.408-.454,14.409,14.409,0,0,1,2.9,5.511,10.109,10.109,0,0,1,.432,5.318,6.805,6.805,0,0,1-.534,1.646c-0.315.676-.7,1.311-1.081,1.948l-0.071.121-0.007.012-0.015.03-0.132.268-0.135.274-0.032.067-0.008.042-0.018.081a2.1,2.1,0,0,0-.09.343,1.577,1.577,0,0,0-.046.4,3.232,3.232,0,0,0,.577,1.794,13.14,13.14,0,0,0,1.682,2.024l1.054,1.069,0.311,0.318L45.9,36.843c0.087,0.1.165,0.179,0.259,0.3l0.286,0.37a10.892,10.892,0,0,1,1.565,3.111,13.261,13.261,0,0,1,.582,3.214,17.232,17.232,0,0,1-.062,2.97C48.456,47.476,48.363,48.1,48.256,48.69Z" transform="translate(0 0)"/><path class="cls-1" d="M8.729,40.62a10.9,10.9,0,0,1,1.562-3.11l0.286-.37c0.094-.118.172-0.2,0.259-0.3l0.254-.285,0.311-.318,1.054-1.069a13.156,13.156,0,0,0,1.682-2.024,3.236,3.236,0,0,0,.577-1.794,1.577,1.577,0,0,0-.047-0.4,2.077,2.077,0,0,0-.09-0.343l-0.018-.081-0.008-.042-0.032-.067-0.132-.275-0.132-.268-0.014-.03-0.007-.012-0.071-.121c-0.376-.638-0.765-1.272-1.081-1.948a6.811,6.811,0,0,1-.534-1.646,10.109,10.109,0,0,1,.433-5.318,14.409,14.409,0,0,1,2.9-5.511,10.645,10.645,0,0,0-1.408.453,13.289,13.289,0,0,0-2.149,1.087l-0.5.327-0.548.4-0.482.384-0.494.417c-1.314,1.141-2.54,2.507-3.847,3.691A19.87,19.87,0,0,1,4.46,23.676a12.919,12.919,0,0,1-2,1.188,7.909,7.909,0,0,1-1.9.62c-0.164.031-.322,0.053-0.475,0.071C-0.38,31.033.806,39.273,8.481,48.69,8.371,48.1,8.274,47.476,8.208,46.8a17.266,17.266,0,0,1-.062-2.97A13.264,13.264,0,0,1,8.729,40.62Z" transform="translate(0 0)"/><path class="cls-1" d="M46.742,44.082a12.833,12.833,0,0,0-.77-2.641,8.425,8.425,0,0,0-1.382-2.263l-0.193-.23c-0.069-.079-0.174-0.177-0.259-0.264l-0.269-.272-0.01-.006,0.029,0.03-0.017-.016-0.034-.031-0.068-.062L43.633,38.2l-1.126-1.019a13.738,13.738,0,0,1-2.15-2.445,6.121,6.121,0,0,1-.75-1.5,14.46,14.46,0,0,0-.041,3.028,5.526,5.526,0,0,1-1.619,4.449,3.013,3.013,0,0,1-2.829.971,15.738,15.738,0,0,1-5.656-2.679,0.159,0.159,0,0,0,0-.07,1.93,1.93,0,0,1,.6-1.62c4.054-1.857,3.947-4.029,3.947-4.029a16.693,16.693,0,0,0-5.163-1.129,6.265,6.265,0,0,0-.962,0,16.689,16.689,0,0,0-5.163,1.129s-0.107,2.173,3.947,4.029a1.928,1.928,0,0,1,.6,1.62,0.165,0.165,0,0,0,0,.07,15.739,15.739,0,0,1-5.658,2.679,3.013,3.013,0,0,1-2.829-.971,5.528,5.528,0,0,1-1.619-4.449,14.46,14.46,0,0,0-.041-3.028,6.11,6.11,0,0,1-.75,1.5,13.736,13.736,0,0,1-2.15,2.445L13.1,38.2l-0.136.124-0.069.062-0.034.031-0.017.016,0.029-.03-0.009.009-0.269.269c-0.085.088-.19,0.185-0.259,0.264l-0.192.23a8.426,8.426,0,0,0-1.382,2.263,12.834,12.834,0,0,0-.771,2.64A20.388,20.388,0,0,0,9.7,46.755c-0.015.433-.02,0.856-0.017,1.268s0.008,0.825.022,1.2c0.014,0.345.035,0.672,0.061,0.99q0.3,0.345.617,0.693a41.565,41.565,0,0,0,8.549,7.2A8.133,8.133,0,0,1,18.741,57a15.042,15.042,0,0,1,.381-5.038,22.87,22.87,0,0,1,.944-2.613,9.9,9.9,0,0,0,1.2,6.418,14.079,14.079,0,0,1,1.623,4.178c0.023,0.111.038,0.218,0.051,0.325A24.236,24.236,0,0,0,28.368,62a24.241,24.241,0,0,0,5.423-1.73c0.013-.107.029-0.214,0.051-0.325a14.079,14.079,0,0,1,1.623-4.178,9.9,9.9,0,0,0,1.2-6.422,22.929,22.929,0,0,1,.944,2.613A15.049,15.049,0,0,1,37.99,57a8.122,8.122,0,0,1-.192,1.112A41.565,41.565,0,0,0,46.346,50.9q0.315-.347.617-0.693c0.026-.315.047-0.642,0.061-0.99,0.014-.377.024-0.792,0.022-1.2s0-.836-0.017-1.268A20.41,20.41,0,0,0,46.742,44.082ZM32.547,46.543a4.006,4.006,0,0,1-.857-1.752s-1.218,2.936-3.323,3.875c-2.1-.938-3.323-3.875-3.323-3.875a4.006,4.006,0,0,1-.857,1.752c-0.857-.9-1.233-3.7-1.233-3.7a31.981,31.981,0,0,1,5.414-2.566,31.981,31.981,0,0,1,5.413,2.566S33.406,45.639,32.547,46.543Z" transform="translate(0 0)"/><path class="cls-1" d="M87.234,19.9V59.383H78.308V3.312h7.014l32.357,40.434V3.391h9.006V59.383h-7.412Z" transform="translate(0 0)"/><path class="cls-1" d="M149,60.173a15.655,15.655,0,0,1-5.619-.987,13.591,13.591,0,0,1-4.464-2.724,12.7,12.7,0,0,1-2.948-4.107,12.269,12.269,0,0,1-1.076-5.134,10.979,10.979,0,0,1,1.275-5.291,12.4,12.4,0,0,1,3.627-4.106,17.672,17.672,0,0,1,5.579-2.686,25.273,25.273,0,0,1,7.133-.947,33.07,33.07,0,0,1,5.818.513,29.658,29.658,0,0,1,5.181,1.382V33.243a9.528,9.528,0,0,0-2.63-7.147q-2.63-2.565-7.571-2.567a18.416,18.416,0,0,0-6.575,1.224,33.422,33.422,0,0,0-6.655,3.514l-2.71-5.528a29.745,29.745,0,0,1,16.738-5.37q8.607,0,13.389,4.343t4.782,12.478V49.117q0,2.765,2.311,2.843v7.423q-1.276.236-2.191,0.316t-1.793.078a5.665,5.665,0,0,1-3.946-1.264,5.377,5.377,0,0,1-1.713-3.238L164.7,52.671a18.565,18.565,0,0,1-6.894,5.568A20.414,20.414,0,0,1,149,60.173Zm2.39-6.4a15.885,15.885,0,0,0,6.018-1.145,10.374,10.374,0,0,0,4.423-3.2,4,4,0,0,0,1.674-3V40.982a26.815,26.815,0,0,0-4.743-1.343,26.457,26.457,0,0,0-4.9-.474,13.5,13.5,0,0,0-7.691,2.014,6.159,6.159,0,0,0-2.988,5.331,6.7,6.7,0,0,0,2.31,5.173A8.452,8.452,0,0,0,151.392,53.776Z" transform="translate(0 0)"/><path class="cls-1" d="M246.631,59.383h-8.766V36.244q0-5.764-1.913-8.451a6.423,6.423,0,0,0-5.579-2.685,10.02,10.02,0,0,0-6.814,2.725,15.321,15.321,0,0,0-4.424,7.068V59.383h-8.766V36.244q0-5.844-1.912-8.49a6.375,6.375,0,0,0-5.5-2.646,10.255,10.255,0,0,0-6.854,2.685,14.913,14.913,0,0,0-4.463,7.029v24.56h-8.767V18.08h7.97v8.292a17.53,17.53,0,0,1,6.5-6.673,18.045,18.045,0,0,1,9.205-2.329q5.179,0,8.169,2.685a11.477,11.477,0,0,1,3.706,6.712,18.993,18.993,0,0,1,6.615-6.989,17.22,17.22,0,0,1,9.085-2.409,12.209,12.209,0,0,1,6.1,1.382,10.743,10.743,0,0,1,3.866,3.672,15.069,15.069,0,0,1,1.992,5.33,35.667,35.667,0,0,1,.558,6.437V59.383Z" transform="translate(0 0)"/><path class="cls-1" d="M275.641,60.173a22.357,22.357,0,0,1-8.846-1.7,20.442,20.442,0,0,1-11.2-11.412,21.826,21.826,0,0,1-1.554-8.213A22.137,22.137,0,0,1,255.6,30.6a21.149,21.149,0,0,1,4.384-6.871,20.3,20.3,0,0,1,6.814-4.659,22.565,22.565,0,0,1,8.926-1.7,21.642,21.642,0,0,1,8.806,1.737,21.073,21.073,0,0,1,6.734,4.62,19.782,19.782,0,0,1,4.265,6.713A22.137,22.137,0,0,1,297,38.455q0,0.948-.08,1.777t-0.159,1.382H263.367a14.05,14.05,0,0,0,1.315,4.975,13.068,13.068,0,0,0,2.789,3.83,12.143,12.143,0,0,0,3.906,2.488,12.3,12.3,0,0,0,4.583.868,14.044,14.044,0,0,0,3.467-.434,12.289,12.289,0,0,0,3.148-1.264,11.181,11.181,0,0,0,2.55-2.014,9.42,9.42,0,0,0,1.753-2.606l7.491,2.133a17.275,17.275,0,0,1-7.133,7.621A22.264,22.264,0,0,1,275.641,60.173Zm12.672-24.561A13.8,13.8,0,0,0,287,30.794a12.054,12.054,0,0,0-6.655-6.16,12.861,12.861,0,0,0-4.7-.869,12.544,12.544,0,0,0-4.663.869,12.414,12.414,0,0,0-3.866,2.409,11.88,11.88,0,0,0-2.709,3.751,14.374,14.374,0,0,0-1.275,4.817h25.185Z" transform="translate(0 0)"/></svg>